<?xml version="1.0" encoding="utf-8"?>
<!-- Generator: Adobe Illustrator 16.0.0, SVG Export Plug-In . SVG Version: 6.00 Build 0)  -->
<!DOCTYPE svg PUBLIC "-//W3C//DTD SVG 1.1//EN" "http://www.w3.org/Graphics/SVG/1.1/DTD/svg11.dtd">
<svg version="1.1" id="Capa_1" xmlns="http://www.w3.org/2000/svg" xmlns:xlink="http://www.w3.org/1999/xlink" x="0px" y="0px"
	 width="1080px" height="1080px" viewBox="0 0 1080 1080" enable-background="new 0 0 1080 1080" xml:space="preserve">
<path fill="#020202" d="M544.001,184.669c-196.245,0-355.334,159.087-355.334,355.33c0,196.25,159.089,355.333,355.334,355.333
	c196.242,0,355.331-159.084,355.331-355.333C899.333,343.756,740.244,184.669,544.001,184.669z M693.78,739.316
	c-98.305,73.863-164.154,25.309-172.822,18.217c-4.02-3.842-7.791-7.932-11.129-12.385c-2.967-3.504-4.49-5.66-4.49-5.66
	l0.541-0.076c-9.806-15.377-15.509-33.594-15.509-53.139c0-54.492,44.171-98.684,98.723-98.684c12.177,0,23.851,2.219,34.625,6.258
	c-4.069-62.444-49.924-85.405-49.924-85.405c-147.171-98.908-254.428-13.716-290.444,22.989
	c3.76-137.345,116.025-247.597,254.292-247.597c140.644,0,254.65,114.007,254.65,254.642
	C792.292,620.221,753.693,692.814,693.78,739.316z"/>
</svg>
